HIERARCHY
ROOT hip
{
  OFFSET 0 0 0
  CHANNELS 6 Xposition Yposition Zposition Zrotation Yrotation Xrotation
  JOINT abdomen
  {
    OFFSET 0 20.6881 -0.73152
    CHANNELS 3 Zrotation Xrotation Yrotation
    JOINT chest
    {
      OFFSET 0 11.7043 -0.48768
      CHANNELS 3 Zrotation Xrotation Yrotation
      JOINT neck
      {
        OFFSET 0 22.1894 -2.19456
        CHANNELS 3 Zrotation Xrotation Yrotation
        JOINT head
        {
          OFFSET -0.24384 7.07133 1.2192
          CHANNELS 3 Zrotation Xrotation Yrotation
          JOINT leftEye
          {
            OFFSET 4.14528 8.04674 8.04672
            CHANNELS 3 Zrotation Xrotation Yrotation
            End Site
            {
              OFFSET 1 0 0
            }
          }
          JOINT rightEye
          {
            OFFSET -3.6576 8.04674 8.04672
            CHANNELS 3 Zrotation Xrotation Yrotation
            End Site
            {
              OFFSET 1 0 0
            }
          }
        }
      }
      JOINT rCollar
      {
        OFFSET -2.68224 19.2634 -4.8768
        CHANNELS 3 Zrotation Xrotation Yrotation
        JOINT rShldr
        {
          OFFSET -8.77824 -1.95073 1.46304
          CHANNELS 3 Zrotation Xrotation Yrotation
          JOINT rForeArm
          {
            OFFSET -28.1742 -1.7115 0.48768
            CHANNELS 3 Zrotation Xrotation Yrotation
            JOINT rHand
            {
              OFFSET -22.5879 0.773209 7.07136
              CHANNELS 3 Zrotation Xrotation Yrotation
              JOINT rThumb1
              {
                OFFSET -1.2192 -0.487915 3.41376
                CHANNELS 3 Zrotation Xrotation Yrotation
                JOINT rThumb2
                {
                  OFFSET -3.37035 -0.52449 3.41376
                  CHANNELS 3 Zrotation Xrotation Yrotation
                  End Site
                  {
                    OFFSET -1.78271 -1.18214 1.43049
                  }
                }
              }
              JOINT rIndex1
              {
                OFFSET -7.75947 0.938293 5.60832
                CHANNELS 3 Zrotation Xrotation Yrotation
                JOINT rIndex2
                {
                  OFFSET -2.54057 -0.884171 1.56538
                  CHANNELS 3 Zrotation Xrotation Yrotation
                  End Site
                  {
                    OFFSET -1.62519 -0.234802 1.16502
                  }
                }
              }
              JOINT rMid1
              {
                OFFSET -8.24714 1.18213 3.41376
                CHANNELS 3 Zrotation Xrotation Yrotation
                JOINT rMid2
                {
                  OFFSET -3.10165 -0.590103 1.0647
                  CHANNELS 3 Zrotation Xrotation Yrotation
                  End Site
                  {
                    OFFSET -2.48547 -0.328903 0.83742
                  }
                }
              }
              JOINT rRing1
              {
                OFFSET -8.82822 0.546677 1.51678
                CHANNELS 3 Zrotation Xrotation Yrotation
                JOINT rRing2
                {
                  OFFSET -2.60934 -0.819778 -0.0198488
                  CHANNELS 3 Zrotation Xrotation Yrotation
                  End Site
                  {
                    OFFSET -2.33842 -0.294052 0.168128
                  }
                }
              }
              JOINT rPinky1
              {
                OFFSET -8.27202 -0.0477905 -0.4584
                CHANNELS 3 Zrotation Xrotation Yrotation
                JOINT rPinky2
                {
                  OFFSET -1.82734 -0.647385 -0.700984
                  CHANNELS 3 Zrotation Xrotation Yrotation
                  End Site
                  {
                    OFFSET -1.69225 -0.51767 -0.607171
                  }
                }
              }
            }
          }
        }
      }
      JOINT lCollar
      {
        OFFSET 2.68224 19.2634 -4.8768
        CHANNELS 3 Zrotation Xrotation Yrotation
        JOINT lShldr
        {
          OFFSET 8.77824 -1.95073 1.46304
          CHANNELS 3 Zrotation Xrotation Yrotation
          JOINT lForeArm
          {
            OFFSET 28.1742 -1.7115 0.48768
            CHANNELS 3 Zrotation Xrotation Yrotation
            JOINT lHand
            {
              OFFSET 22.5879 0.773209 7.07136
              CHANNELS 3 Zrotation Xrotation Yrotation
              JOINT lThumb1
              {
                OFFSET 1.2192 -0.487915 3.41376
                CHANNELS 3 Zrotation Xrotation Yrotation
                JOINT lThumb2
                {
                  OFFSET 3.37035 -0.52449 3.41376
                  CHANNELS 3 Zrotation Xrotation Yrotation
                  End Site
                  {
                    OFFSET 1.78271 -1.18214 1.43049
                  }
                }
              }
              JOINT lIndex1
              {
                OFFSET 7.75947 0.938293 5.60832
                CHANNELS 3 Zrotation Xrotation Yrotation
                JOINT lIndex2
                {
                  OFFSET 2.54057 -0.884171 1.56538
                  CHANNELS 3 Zrotation Xrotation Yrotation
                  End Site
                  {
                    OFFSET 1.62519 -0.234802 1.16502
                  }
                }
              }
              JOINT lMid1
              {
                OFFSET 8.24714 1.18213 3.41376
                CHANNELS 3 Zrotation Xrotation Yrotation
                JOINT lMid2
                {
                  OFFSET 3.10165 -0.590103 1.0647
                  CHANNELS 3 Zrotation Xrotation Yrotation
                  End Site
                  {
                    OFFSET 2.48547 -0.328903 0.83742
                  }
                }
              }
              JOINT lRing1
              {
                OFFSET 8.82822 0.546677 1.51678
                CHANNELS 3 Zrotation Xrotation Yrotation
                JOINT lRing2
                {
                  OFFSET 2.60934 -0.819778 -0.0198488
                  CHANNELS 3 Zrotation Xrotation Yrotation
                  End Site
                  {
                    OFFSET 2.33842 -0.294052 0.168128
                  }
                }
              }
              JOINT lPinky1
              {
                OFFSET 8.27202 -0.0477905 -0.4584
                CHANNELS 3 Zrotation Xrotation Yrotation
                JOINT lPinky2
                {
                  OFFSET 1.82734 -0.647385 -0.700984
                  CHANNELS 3 Zrotation Xrotation Yrotation
                  End Site
                  {
                    OFFSET 1.69225 -0.51767 -0.607171
                  }
                }
              }
            }
          }
        }
      }
    }
  }
  JOINT rButtock
  {
    OFFSET -8.77824 4.35084 1.2192
    CHANNELS 3 Zrotation Xrotation Yrotation
    JOINT rThigh
    {
      OFFSET 0 -1.70687 -2.19456
      CHANNELS 3 Zrotation Xrotation Yrotation
      JOINT rShin
      {
        OFFSET 0 -36.8199 0.73152
        CHANNELS 3 Zrotation Xrotation Yrotation
        JOINT rFoot
        {
          OFFSET 0.73152 -45.1104 -5.12064
          CHANNELS 3 Zrotation Xrotation Yrotation
          End Site
          {
            OFFSET -1.1221 -3.69964 12.103
          }
        }
      }
    }
  }
  JOINT lButtock
  {
    OFFSET 8.77824 4.35084 1.2192
    CHANNELS 3 Zrotation Xrotation Yrotation
    JOINT lThigh
    {
      OFFSET 0 -1.70687 -2.19456
      CHANNELS 3 Zrotation Xrotation Yrotation
      JOINT lShin
      {
        OFFSET 0 -36.8199 0.73152
        CHANNELS 3 Zrotation Xrotation Yrotation
        JOINT lFoot
        {
          OFFSET -0.73152 -45.1104 -5.12064
          CHANNELS 3 Zrotation Xrotation Yrotation
          End Site
          {
            OFFSET 1.1221 -3.69964 12.103
          }
        }
      }
    }
  }
}
MOTION
Frames:	7
Frame Time:	0.00833333
3.42962 79.3152 31.2991 2.8572 -144.243 -9.3761 -5.29724 14.4537 2.8021 -2.31704 -6.93158 -0.0444758 1.88987 12.4008 -0.563471 -1.01566 -20.392 -1.61386 -0.0 0.0 0.0 -0.0 0.0 0.0 -9.67359e-14 1.08156e-13 9.93529e-13 64.2538 39.8066 -1.33005 -24.5832 -20.2282 51.513 -0.0102331 -2.87137 -0.403891 -2.27749e-10 1.37617e-08 -4.83928e-09 -3.8517e-10 2.37695e-08 -8.35905e-09 -2.27741e-10 1.37617e-08 -4.83929e-09 7.73091 5.47488 0.417314 -2.27749e-10 1.37617e-08 -4.83928e-09 2.90554 0.965183 0.102902 -2.27745e-10 1.37617e-08 -4.83928e-09 10.2786 0.731801 0.0259123 -2.27753e-10 1.37617e-08 -4.83927e-09 2.22167 -0.733487 -0.20892 -9.66763e-14 1.08153e-13 9.93259e-13 -47.2814 36.3629 -14.6698 28.3931 -35.5286 -76.4885 1.3598 -31.1108 4.86776 -4.05036e-09 9.1982e-09 -3.94135e-09 -6.90514e-09 1.62182e-08 -6.89941e-09 -4.05037e-09 9.19819e-09 -3.94133e-09 -7.73091 5.47488 -0.417314 -4.05036e-09 9.1982e-09 -3.94135e-09 -2.90554 0.965183 -0.102902 -4.05037e-09 9.19818e-09 -3.94134e-09 -10.2786 0.731801 -0.0259123 -4.05036e-09 9.1982e-09 -3.94135e-09 -2.22167 -0.733487 0.20892 -2.03217e-16 0.0 -3.88251e-19 2.36287 -11.9776 10.1501 -0.548462 45.8995 0.66744 2.61691 -19.312 6.50086 2.03217e-16 0.0 3.88251e-19 2.1833 -16.2483 0.630266 0.348966 46.35 -0.849854 3.05949 -14.1366 9.33305
2.90832 79.3217 31.4609 2.5314 -143.606 -9.3515 -5.37405 14.5685 2.5907 -2.10012 -6.8438 -0.100207 2.01691 12.5875 -0.663549 -1.35773 -20.4493 -1.88065 -0.0 0.0 0.0 -0.0 0.0 0.0 -9.87663e-14 4.93e-14 9.92532e-13 64.4466 40.1348 -1.35816 -24.3983 -19.8603 50.8949 -0.00973622 -2.8161 -0.396099 -6.38973e-11 1.5265e-08 -5.2892e-09 -1.0041e-10 2.63669e-08 -9.13618e-09 -6.38894e-11 1.5265e-08 -5.28921e-09 7.73091 5.47488 0.417314 -6.38965e-11 1.5265e-08 -5.28921e-09 2.90554 0.965183 0.102902 -6.38928e-11 1.5265e-08 -5.28921e-09 10.2786 0.731801 0.0259123 -6.39021e-11 1.5265e-08 -5.2892e-09 2.22167 -0.733487 -0.20892 -9.87328e-14 4.92976e-14 9.92234e-13 -49.0374 39.2303 -13.5779 28.4193 -34.7712 -74.9673 1.29413 -30.4876 4.74631 -4.21602e-09 9.35554e-09 -3.89567e-09 -7.19029e-09 1.65055e-08 -6.8265e-09 -4.21603e-09 9.35553e-09 -3.89565e-09 -7.73091 5.47488 -0.417314 -4.21602e-09 9.35554e-09 -3.89566e-09 -2.90554 0.965183 -0.102902 -4.21603e-09 9.35552e-09 -3.89565e-09 -10.2786 0.731801 -0.0259123 -4.21602e-09 9.35554e-09 -3.89567e-09 -2.22167 -0.733487 0.20892 -2.03217e-16 0.0 -3.88251e-19 2.11495 -11.7349 10.2084 -0.550732 45.8482 0.647186 2.94207 -19.0278 7.24234 2.03217e-16 0.0 3.88251e-19 1.89694 -16.0924 0.659588 0.341562 46.1264 -0.835048 2.96637 -14.1446 9.03171
2.43983 79.3295 31.6229 2.544 -143.252 -9.3835 -5.44509 14.6419 2.57767 -2.05471 -6.83793 -0.109594 2.06828 12.7578 -0.786463 -1.43467 -20.3841 -2.14426 -0.0 0.0 0.0 -0.0 0.0 0.0 -7.76774e-14 -4.48093e-14 7.0062e-13 64.8904 40.3907 -1.57687 -24.1947 -19.4668 50.2211 -0.00845232 -2.64287 -0.371692 1.18686e-10 1.36809e-08 -4.63431e-09 2.14467e-10 2.3631e-08 -8.00464e-09 1.18693e-10 1.36809e-08 -4.63432e-09 7.73091 5.47488 0.417314 1.18686e-10 1.36809e-08 -4.63431e-09 2.90554 0.965183 0.102902 1.1869e-10 1.36809e-08 -4.63432e-09 10.2786 0.731801 0.0259123 1.18682e-10 1.36809e-08 -4.6343e-09 2.22167 -0.733487 -0.20892 -7.76903e-14 -4.48115e-14 7.00319e-13 -51.029 41.5391 -12.5971 28.4039 -33.5947 -72.811 1.15508 -29.09 4.48029 -3.05718e-09 5.90739e-09 -2.06337e-09 -5.22624e-09 1.04348e-08 -3.63749e-09 -3.05718e-09 5.90739e-09 -2.06335e-09 -7.73091 5.47488 -0.417314 -3.05718e-09 5.90739e-09 -2.06336e-09 -2.90554 0.965183 -0.102902 -3.05718e-09 5.90737e-09 -2.06335e-09 -10.2786 0.731801 -0.0259123 -3.05717e-09 5.90739e-09 -2.06337e-09 -2.22167 -0.733487 0.20892 -2.03217e-16 0.0 -3.88251e-19 1.89729 -11.5051 10.3218 -0.545568 45.7889 0.666346 2.44275 -19.5357 6.05912 2.03217e-16 0.0 3.88251e-19 1.67117 -15.8561 0.79899 0.329751 45.7907 -0.817266 2.84744 -14.1932 8.61856
1.96733 79.3551 31.7794 2.3766 -142.961 -9.2292 -5.52513 14.6867 2.68169 -2.08651 -6.875 -0.0907036 2.06125 12.9123 -0.920766 -1.37258 -20.2584 -2.40308 -0.0 0.0 0.0 -0.0 0.0 0.0 -3.97695e-14 -1.68544e-13 2.2257e-13 65.462 40.6208 -1.89894 -23.9701 -19.0437 49.4989 -0.00691158 -2.40311 -0.337927 3.13941e-10 1.01544e-08 -3.2817e-09 5.49902e-10 1.75398e-08 -5.66774e-09 3.13945e-10 1.01544e-08 -3.28171e-09 7.73091 5.47488 0.417314 3.13939e-10 1.01544e-08 -3.2817e-09 2.90554 0.965183 0.102902 3.13945e-10 1.01544e-08 -3.2817e-09 10.2786 0.731801 0.0259123 3.13939e-10 1.01544e-08 -3.28169e-09 2.22167 -0.733487 -0.20892 -3.98463e-14 -1.68546e-13 2.22282e-13 -53.2444 43.4688 -11.6239 28.2488 -31.9772 -70.291 0.986806 -27.1744 4.13103 -1.06593e-09 1.06558e-10 9.39251e-10 -1.84922e-09 2.14767e-10 1.59159e-09 -1.06593e-09 1.06571e-10 9.39264e-10 -7.73091 5.47488 -0.417314 -1.06593e-09 1.06556e-10 9.39255e-10 -2.90554 0.965183 -0.102902 -1.06593e-09 1.06545e-10 9.39259e-10 -10.2786 0.731801 -0.0259123 -1.06592e-09 1.06557e-10 9.39243e-10 -2.22167 -0.733487 0.20892 -2.03217e-16 0.0 -3.88251e-19 1.68454 -11.2708 10.4695 -0.535271 45.7082 0.709182 1.37362 -20.5043 3.67569 2.03217e-16 0.0 3.88251e-19 1.46016 -15.5558 0.995897 0.314681 45.365 -0.797157 2.70918 -14.2828 8.12129
1.46346 79.3999 31.9783 2.2578 -142.603 -9.1079 -5.66799 14.7002 2.85951 -2.12774 -6.91702 -0.0525216 1.99331 13.0336 -1.05637 -1.20761 -20.0832 -2.64445 -0.0 0.0 0.0 -0.0 0.0 0.0 -1.28715e-15 -2.7768e-13 -2.62539e-13 66.05 40.8289 -2.23072 -23.739 -18.6191 48.7824 -0.00556931 -2.15159 -0.302525 4.94711e-10 6.13089e-09 -1.76945e-09 8.59944e-10 1.059e-08 -3.05512e-09 4.94714e-10 6.1309e-09 -1.76946e-09 7.73091 5.47488 0.417314 4.94707e-10 6.1309e-09 -1.76945e-09 2.90554 0.965183 0.102902 4.94715e-10 6.1309e-09 -1.76944e-09 10.2786 0.731801 0.0259123 4.94711e-10 6.1309e-09 -1.76944e-09 2.22167 -0.733487 -0.20892 -1.42137e-15 -2.77682e-13 -2.62808e-13 -55.489 45.0634 -10.6548 27.9463 -30.1678 -67.5883 0.85023 -25.3465 3.81327 9.70224e-10 -5.61335e-09 3.88766e-09 1.60591e-09 -9.86731e-09 6.72857e-09 9.70216e-10 -5.61333e-09 3.88767e-09 -7.73091 5.47488 -0.417314 9.70223e-10 -5.61336e-09 3.88766e-09 -2.90554 0.965183 -0.102902 9.70219e-10 -5.61336e-09 3.88766e-09 -10.2786 0.731801 -0.0259123 9.70229e-10 -5.61335e-09 3.88765e-09 -2.22167 -0.733487 0.20892 -2.03217e-16 0.0 -3.88251e-19 1.42696 -11.103 10.5635 -0.525665 45.655 0.752405 0.233595 -21.4075 1.28939 2.03217e-16 0.0 3.88251e-19 1.22855 -15.2632 1.19523 0.298423 44.9086 -0.777307 2.56992 -14.3829 7.62046
1.02612 79.4973 32.0669 2.4471 -142.641 -9.1027 -5.92709 14.6798 3.06782 -2.11069 -6.926 -0.00404311 1.86168 13.1045 -1.18311 -0.976308 -19.8698 -2.85588 -0.0 0.0 0.0 -0.0 0.0 0.0 2.15252e-14 -3.27995e-13 -5.75631e-13 66.5415 41.0203 -2.47738 -23.5196 -18.2257 48.1238 -0.00463285 -1.9431 -0.27319 6.3384e-10 3.05574e-09 -6.3564e-10 1.09864e-09 5.27855e-09 -1.09641e-09 6.33842e-10 3.05576e-09 -6.35647e-10 7.73091 5.47488 0.417314 6.33835e-10 3.05575e-09 -6.35637e-10 2.90554 0.965183 0.102902 6.33843e-10 3.05576e-09 -6.35635e-10 10.2786 0.731801 0.0259123 6.33841e-10 3.05575e-09 -6.35627e-10 2.22167 -0.733487 -0.20892 2.1364e-14 -3.27995e-13 -5.75879e-13 -57.5719 46.3684 -9.6878 27.5599 -28.4312 -64.7502 0.777567 -24.2141 3.62369 2.26377e-09 -8.81874e-09 5.55735e-09 3.80428e-09 -1.55242e-08 9.64128e-09 2.26376e-09 -8.81871e-09 5.55736e-09 -7.73091 5.47488 -0.417314 2.26377e-09 -8.81875e-09 5.55735e-09 -2.90554 0.965183 -0.102902 2.26376e-09 -8.81875e-09 5.55735e-09 -10.2786 0.731801 -0.0259123 2.26377e-09 -8.81875e-09 5.55734e-09 -2.22167 -0.733487 0.20892 -2.03217e-16 0.0 -3.88251e-19 1.07602 -11.0728 10.5156 -0.522887 45.6777 0.772945 -0.330559 -21.7701 0.14893 2.03217e-16 0.0 3.88251e-19 0.94304 -15.0504 1.34243 0.282823 44.4812 -0.760121 2.4495 -14.4633 7.19698
0.628844 79.5288 32.2605 2.4232 -142.214 -8.8723 -6.4105 14.5857 3.32367 -1.99848 -6.87885 0.0592669 1.61274 13.0971 -1.29597 -0.583292 -19.5814 -3.01114 -0.0 0.0 0.0 -0.0 0.0 0.0 2.17734e-14 -2.90474e-13 -6.2073e-13 66.951 41.1935 -2.64668 -23.3215 -17.8796 47.5365 -0.00396511 -1.78797 -0.251367 6.7024e-10 1.33604e-09 -5.71223e-11 1.16068e-09 2.30835e-09 -9.72007e-11 6.70243e-10 1.33605e-09 -5.71305e-11 7.73091 5.47488 0.417314 6.70236e-10 1.33605e-09 -5.71206e-11 2.90554 0.965183 0.102902 6.70243e-10 1.33604e-09 -5.71191e-11 10.2786 0.731801 0.0259123 6.70241e-10 1.33605e-09 -5.71138e-11 2.22167 -0.733487 -0.20892 2.16333e-14 -2.90469e-13 -6.20952e-13 -59.4289 47.3861 -8.72326 27.0924 -26.6449 -61.6284 0.777143 -24.1649 3.61675 2.42841e-09 -8.29852e-09 5.34136e-09 4.09083e-09 -1.46253e-08 9.27351e-09 2.42841e-09 -8.2985e-09 5.34137e-09 -7.73091 5.47488 -0.417314 2.42841e-09 -8.29852e-09 5.34136e-09 -2.90554 0.965183 -0.102902 2.42841e-09 -8.29852e-09 5.34136e-09 -10.2786 0.731801 -0.0259123 2.42842e-09 -8.29852e-09 5.34135e-09 -2.22167 -0.733487 0.20892 -2.03217e-16 0.0 -3.88251e-19 0.549352 -11.199 10.3192 -0.529658 45.7571 0.754214 0.1571 -21.3814 1.10638 2.03217e-16 0.0 3.88251e-19 0.536105 -14.9495 1.43268 0.267191 44.0748 -0.744936 2.35364 -14.5081 6.8797
